<mxfile host="app.diagrams.net" modified="2023-11-13T11:43:44.732Z" agent="Mozilla/5.0 (Windows NT 10.0; Win64; x64) AppleWebKit/537.36 (KHTML, like Gecko) Chrome/117.0.0.0 Safari/537.36" version="22.1.0" etag="nLXqsFJ1I3EuJSzr4k3t" type="github">
  <diagram name="Page-1" id="F9VkaaTySPr6rD6MuLZB">
    <mxGraphModel>
      <root>
        <mxCell id="0" />
        <mxCell id="1" parent="0" />
      </root>
    </mxGraphModel>
  </diagram>
</mxfile>
